<?xml version="1.0" encoding="UTF-8" standalone="no"?>
<svg
   xmlns:dc="http://purl.org/dc/elements/1.1/"
   xmlns:cc="http://creativecommons.org/ns#"
   xmlns:rdf="http://www.w3.org/1999/02/22-rdf-syntax-ns#"
   xmlns:svg="http://www.w3.org/2000/svg"
   xmlns="http://www.w3.org/2000/svg"
   xmlns:sodipodi="http://sodipodi.sourceforge.net/DTD/sodipodi-0.dtd"
   xmlns:inkscape="http://www.inkscape.org/namespaces/inkscape"
   width="150pt"
   height="156pt"
   viewBox="0.00 0.00 150.00 156.00"
   id="svg3067"
   version="1.1"
   inkscape:version="0.48.3.1 r9886"
   sodipodi:docname="4-simplex_graph.svg">
  <metadata
     id="metadata3109">
    <rdf:RDF>
      <cc:Work
         rdf:about="">
        <dc:format>image/svg+xml</dc:format>
        <dc:type
           rdf:resource="http://purl.org/dc/dcmitype/StillImage" />
      </cc:Work>
    </rdf:RDF>
  </metadata>
  <defs
     id="defs3107" />
  <sodipodi:namedview
     pagecolor="#ffffff"
     bordercolor="#666666"
     borderopacity="1"
     objecttolerance="10"
     gridtolerance="10"
     guidetolerance="10"
     inkscape:pageopacity="0"
     inkscape:pageshadow="2"
     inkscape:window-width="640"
     inkscape:window-height="480"
     id="namedview3105"
     showgrid="false"
     inkscape:zoom="1.2102564"
     inkscape:cx="93.75"
     inkscape:cy="97.5"
     inkscape:window-x="0"
     inkscape:window-y="0"
     inkscape:window-maximized="0"
     inkscape:current-layer="svg3067" />
  <g
     transform="matrix(0.95539804,-0.29532115,0.29532115,0.95539804,36.291691,175.61641)"
     id="g3069">
    <g
       style="fill:none;stroke:#000000"
       id="g3071">
      <path
         d="m 9,-36 c 13,-18 60,-83 74,-101"
         id="path3073"
         inkscape:connector-curvature="0" />
      <path
         d="m 86,-11 c 0,-22 0,-104 0,-126"
         id="path3075"
         inkscape:connector-curvature="0" />
      <path
         d="M 83,-10 C 70,-28 23,-93 9,-111"
         id="path3077"
         inkscape:connector-curvature="0" />
      <path
         d="M 81,-8 C 66,-12 26,-25 11,-30"
         id="path3079"
         inkscape:connector-curvature="0" />
      <path
         d="m 6,-38 c 0,-15 0,-57 0,-72"
         id="path3081"
         inkscape:connector-curvature="0" />
      <path
         d="m 133,-78 c -9,-13 -34,-47 -44,-59"
         id="path3083"
         inkscape:connector-curvature="0" />
      <path
         d="m 133,-70 c -9,13 -34,47 -44,59"
         id="path3085"
         inkscape:connector-curvature="0" />
      <path
         d="M 131,-76 C 109,-83 32,-108 11,-114"
         id="path3087"
         inkscape:connector-curvature="0" />
      <path
         d="m 131,-72 c -22,7 -99,32 -120,38"
         id="path3089"
         inkscape:connector-curvature="0" />
      <path
         d="m 11,-118 c 15,-4 55,-17 70,-22"
         id="path3091"
         inkscape:connector-curvature="0" />
    </g>
    <g
       style="fill:#0000ff;stroke:#000000"
       id="g3093">
      <circle
         cx="86"
         cy="-6"
         r="5.4000001"
         id="circle3095"
         d="m 91.4,-6 c 0,2.9823377 -2.417662,5.4000001 -5.4,5.4000001 -2.982338,0 -5.4,-2.4176624 -5.4,-5.4000001 0,-2.9823377 2.417662,-5.4 5.4,-5.4 2.982338,0 5.4,2.4176623 5.4,5.4 z"
         sodipodi:cx="86"
         sodipodi:cy="-6"
         sodipodi:rx="5.4000001"
         sodipodi:ry="5.4000001" />
      <circle
         cx="86"
         cy="-142"
         r="5.4000001"
         id="circle3097"
         d="m 91.4,-142 c 0,2.98234 -2.417662,5.4 -5.4,5.4 -2.982338,0 -5.4,-2.41766 -5.4,-5.4 0,-2.98234 2.417662,-5.4 5.4,-5.4 2.982338,0 5.4,2.41766 5.4,5.4 z"
         sodipodi:cx="86"
         sodipodi:cy="-142"
         sodipodi:rx="5.4000001"
         sodipodi:ry="5.4000001" />
      <circle
         cx="6"
         cy="-32"
         r="5.4000001"
         id="circle3099"
         d="m 11.4,-32 c 0,2.982338 -2.4176623,5.4 -5.4,5.4 -2.9823377,0 -5.4000001,-2.417662 -5.4000001,-5.4 0,-2.982338 2.4176624,-5.4 5.4000001,-5.4 2.9823377,0 5.4,2.417662 5.4,5.4 z"
         sodipodi:cx="6"
         sodipodi:cy="-32"
         sodipodi:rx="5.4000001"
         sodipodi:ry="5.4000001" />
      <circle
         cx="6"
         cy="-116"
         r="5.4000001"
         id="circle3101"
         d="m 11.4,-116 c 0,2.98234 -2.4176623,5.4 -5.4,5.4 -2.9823377,0 -5.4000001,-2.41766 -5.4000001,-5.4 0,-2.98234 2.4176624,-5.4 5.4000001,-5.4 2.9823377,0 5.4,2.41766 5.4,5.4 z"
         sodipodi:cx="6"
         sodipodi:cy="-116"
         sodipodi:rx="5.4000001"
         sodipodi:ry="5.4000001" />
      <circle
         cx="136"
         cy="-74"
         r="5.4000001"
         id="circle3103"
         d="m 141.4,-74 c 0,2.982338 -2.41766,5.4 -5.4,5.4 -2.98234,0 -5.4,-2.417662 -5.4,-5.4 0,-2.982338 2.41766,-5.4 5.4,-5.4 2.98234,0 5.4,2.417662 5.4,5.4 z"
         sodipodi:cx="136"
         sodipodi:cy="-74"
         sodipodi:rx="5.4000001"
         sodipodi:ry="5.4000001" />
    </g>
  </g>
</svg>
